<svg width="69" height="70" viewBox="0 0 69 70" fill="none" xmlns="http://www.w3.org/2000/svg">
<circle cx="30.2016" cy="39.7984" r="30.2016" fill="url(#paint0_radial_58_193)"/>
<path d="M33.6939 31.0373C29.6686 31.2962 26.0155 32.8293 23.9427 38.2914C23.7069 38.9145 23.14 39.2928 22.4788 39.2928C21.3641 39.2928 17.9177 36.5165 16.9355 35.8463C16.9365 44.1088 20.7421 51.371 29.779 51.371C37.3902 51.371 42.6215 46.9793 42.6215 39.3118C42.6215 38.9998 42.5562 38.7018 42.5241 38.3958L33.6939 31.0373ZM62.8775 0C61.3564 0 59.9307 0.673241 58.8431 1.65049C38.3343 19.9715 36.2002 20.4019 36.2002 25.7948C36.2002 27.1694 36.5263 28.4798 37.0761 29.6778L43.4793 35.0135C44.2027 35.1941 44.9482 35.3175 45.7257 35.3175C51.9574 35.3175 55.5693 30.7554 66.9118 9.5859C67.6523 8.14611 68.3064 6.59093 68.3064 4.97155C68.3064 2.07089 65.6978 0 62.8775 0Z" fill="#B8BBE4"/>
<defs>
<radialGradient id="paint0_radial_58_193" cx="0" cy="0" r="1" gradientUnits="userSpaceOnUse" gradientTransform="translate(30.2016 39.7984) rotate(89.8674) scale(121.936)">
<stop stop-color="#F4E7FB"/>
<stop offset="1" stop-color="#C3C7F4"/>
</radialGradient>
</defs>
</svg>
